<?xml version="1.0" encoding="utf-8"?>
<!-- Generator: Adobe Illustrator 18.1.0, SVG Export Plug-In . SVG Version: 6.00 Build 0)  -->
<svg version="1.1" id="Слой_1" xmlns="http://www.w3.org/2000/svg" xmlns:xlink="http://www.w3.org/1999/xlink" x="0px" y="0px"
	 width="100px" height="100px" viewBox="0 0 100 100" enable-background="new 0 0 100 100" xml:space="preserve">
<g id="AngularJS_Logo">
	<g>
		<path fill="#B0B0B1" d="M49.9,0L2.8,16.6l7.4,61.6L49.9,100l39.9-22.1l7.4-61.6L49.9,0z"/>
		<path fill="#924A47" d="M92.5,19.8L49.7,5.2v89.6L85.6,75L92.5,19.8z"/>
		<path fill="#BA4F46" d="M8.1,20.1l6.4,55.1l35.3,19.6V5.2L8.1,20.1z"/>
		<path fill="#F1F1F1" d="M59.7,49.8l-9.8-20.5l-8.7,20.5L59.7,49.8L59.7,49.8z M63.4,58.4H37.3L31.5,73l-10.8,0.2L49.7,8.5
			l30.1,64.7H69.8L63.4,58.4z"/>
		<path fill="#B0B0B1" d="M49.7,8.5l0.1,20.7l9.8,20.6h-9.9l0,8.6l13.7,0l6.4,14.8l10.4,0.2L49.7,8.5z"/>
	</g>
</g>
</svg>
