<?xml version="1.0" encoding="utf-8"?>
<!-- Generator: Adobe Illustrator 18.1.0, SVG Export Plug-In . SVG Version: 6.00 Build 0)  -->
<svg version="1.1" id="Слой_1" xmlns="http://www.w3.org/2000/svg" xmlns:xlink="http://www.w3.org/1999/xlink" x="0px" y="0px"
	 width="100px" height="100px" viewBox="0 0 100 100" enable-background="new 0 0 100 100" xml:space="preserve">
<g>
	<g>
		
			<linearGradient id="SVGID_1_" gradientUnits="userSpaceOnUse" x1="-1911.2766" y1="2845.9578" x2="-1850.4954" y2="2785.1765" gradientTransform="matrix(1 0 0 -1 1950 2857.0291)">
			<stop  offset="0" style="stop-color:#DD9E4E"/>
			<stop  offset="1" style="stop-color:#DA9559"/>
		</linearGradient>
		<path fill="url(#SVGID_1_)" d="M97.4,69.9c0-0.4,0.1-0.8,0.1-1.3c0-0.5-30.2-29.2-30.2-29.2h-0.7C66.5,39.4,97.2,71.8,97.4,69.9z"
			/>
		
			<linearGradient id="SVGID_2_" gradientUnits="userSpaceOnUse" x1="-1956.6001" y1="2835.7876" x2="-1902.7878" y2="2781.9753" gradientTransform="matrix(1 0 0 -1 1950 2857.0291)">
			<stop  offset="0" style="stop-color:#DD9E4E"/>
			<stop  offset="1" style="stop-color:#DA9559"/>
		</linearGradient>
		<path fill="url(#SVGID_2_)" d="M32.8,60c0,0.1-0.1,0.2-0.1,0.3c0,0.1-0.1,0.2-0.1,0.3c-1,2,13.5,16.2,14.7,14.4
			c0.1-0.1,0.1-0.2,0.2-0.2c0.1-0.1,0.1-0.2,0.2-0.3C48.5,73,33.2,59,32.8,60z"/>
		
			<linearGradient id="SVGID_3_" gradientUnits="userSpaceOnUse" x1="-1936.6097" y1="2816.4331" x2="-1882.1034" y2="2761.9268" gradientTransform="matrix(1 0 0 -1 1950 2857.0291)">
			<stop  offset="0" style="stop-color:#DD9E4E"/>
			<stop  offset="1" style="stop-color:#DA9559"/>
		</linearGradient>
		<path fill="url(#SVGID_3_)" d="M53.2,79.9c0,0.1-0.3,0.6-0.6,0.8c0,0.1,14.1,14.1,14.1,14.1H68C68,94.8,54.7,80.5,53.2,79.9z"/>
		
			<linearGradient id="SVGID_4_" gradientUnits="userSpaceOnUse" x1="-1946.9009" y1="2854.6758" x2="-1861.5753" y2="2769.3501" gradientTransform="matrix(1 0 0 -1 1950 2857.0291)">
			<stop  offset="0" style="stop-color:#CD6F5D"/>
			<stop  offset="1" style="stop-color:#DD9E4E"/>
		</linearGradient>
		<path fill="url(#SVGID_4_)" d="M97.5,68.4c-0.7,14.7-12.8,26.4-27.7,26.4h-2L53,80.2c1.2-1.7,2.4-3.5,3.4-5.4h13.5
			c4.3,0,7.7-3.5,7.7-7.7c0-4.3-3.5-7.7-7.7-7.7h-8c0.6-3.2,0.9-6.5,0.9-9.9c0-3.4-0.3-6.8-1-10.1h5l30.6,30.2
			C97.4,69.2,97.4,68.8,97.5,68.4z M9.5,4H1.4v20h8.1C23.6,24,35,35.4,35,49.5c0,3.8-0.9,7.5-2.4,10.7l14.7,14.5
			c4.8-7.2,7.6-15.9,7.6-25.2C55,24.4,34.6,4,9.5,4z"/>
		
			<linearGradient id="SVGID_5_" gradientUnits="userSpaceOnUse" x1="-1903.2694" y1="2862.5791" x2="-1840.3549" y2="2799.6648" gradientTransform="matrix(1 0 0 -1 1950 2857.0291)">
			<stop  offset="0" style="stop-color:#9C5053"/>
			<stop  offset="1" style="stop-color:#D78C54"/>
		</linearGradient>
		<path fill="url(#SVGID_5_)" d="M69.8,4H37.2c8,4.9,14.6,11.8,19.1,20h13.6c4.3,0,7.7,3.5,7.7,7.7c0,4.3-3.5,7.7-7.7,7.7h-3
			l30.6,30.2c0.1-0.8,0.1-1.6,0.1-2.5c0-6.7-2.4-12.9-6.4-17.7c4-4.8,6.4-11,6.4-17.7C97.5,16.4,85.1,4,69.8,4z"/>
		
			<linearGradient id="SVGID_6_" gradientUnits="userSpaceOnUse" x1="-1941.917" y1="2788.6421" x2="-1898.8306" y2="2745.5557" gradientTransform="matrix(1 0 0 -1 1950 2857.0291)">
			<stop  offset="0" style="stop-color:#DD9E4E"/>
			<stop  offset="1" style="stop-color:#DA9559"/>
		</linearGradient>
		<path fill="url(#SVGID_6_)" d="M67.8,94.8H37.4c6.1-3.8,11.4-8.8,15.6-14.6L67.8,94.8z M47.4,74.7L32.7,60.2
			C28.6,69,19.7,75,9.5,75H1.4v20h8.1C25.3,95,39.2,86.9,47.4,74.7z"/>
	</g>
</g>
</svg>
