<?xml version="1.0" encoding="utf-8"?>
<!-- Generator: Adobe Illustrator 16.0.4, SVG Export Plug-In . SVG Version: 6.00 Build 0)  -->
<!DOCTYPE svg PUBLIC "-//W3C//DTD SVG 1.1//EN" "http://www.w3.org/Graphics/SVG/1.1/DTD/svg11.dtd">
<svg version="1.1" id="Layer_1" xmlns="http://www.w3.org/2000/svg" xmlns:xlink="http://www.w3.org/1999/xlink" x="0px" y="0px"
	 width="248.47px" height="334.997px" viewBox="0 0 248.47 334.997" enable-background="new 0 0 248.47 334.997"
	 xml:space="preserve">
<g id="Layer_1_2_">
	<g>
		<path fill="#FBA919" d="M16.045,81.42c0,0,5.729,22.127,6.555,29.504c0.82,7.375-14.752,23.765-14.752,31.961
			c0,8.196,3.275,22.947,21.307,30.324c18.032,7.377,20.488,26.226,20.488,37.7c0,11.474-6.555,33.599-6.555,33.599
			s-4.104,54.907,18.021,64.741c22.125,9.833,17.21,9.833,22.125,9.833c4.916,0,40.979,14.762,62.283,9.021
			c21.312-5.736,27.041-12.291,27.041-12.291s21.312,1.637,27.864-17.215c6.56-18.854,10.649-58.184,8.188-76.215
			c-2.459-18.031-5.729-41.793,9.021-49.99c14.756-8.196,30.321-18.026,27.862-26.224c-2.459-8.196-15.564-19.67-15.564-19.67
			s-3.279-20.486-0.822-25.404c2.457-4.917,17.21-17.213,9.021-26.226c-8.191-9.014-22.947-9.014-22.947-9.014l-18.848,1.637
			c0,0-31.967-28.682-73.764-27.043C80.776,42.087,54.55,67.491,54.55,67.491s-13.937-4.917-26.229,0
			C16.039,72.407,13.588,67.486,16.045,81.42z"/>
		<path fill="#E78724" d="M90.928,203.437c0,0-16.229,24.814-28.133,42.426c-1.85,2.725,11.896,2.912,11.896,2.912L90.928,203.437z"
			/>
		<path fill="#E78724" d="M98.654,151.99c0,0-4.893,12.205-7.572,18.676c-2.901,7.033-14,10.532-14,10.532s5.75-6.03,5.75-21.306
			c0-6.409,8.273-8.957,8.273-8.957L98.654,151.99z"/>
		<path fill="#E78724" d="M93.713,158.891c0,0-10.023,11.931-28.641,5.249c-18.607-6.68-20.521-30.545-20.521-37.227
			c0-6.682,35.313,6.682,40.092,9.546C89.423,139.323,98.484,150.775,93.713,158.891z"/>
		<path fill="#E78724" d="M23.414,31.4c0,0,17.187-3.343,28.64,5.726c11.457,9.067,14.793,16.228,14.793,16.228L47.535,68.657
			c0,0-9.321-4.325-12.188-16.735C32.48,39.513,34.389,33.787,23.414,31.4z"/>
		<path fill="#E78724" d="M88.701,124.427c-7.396-10.5-19.587-15.08-29.313-15.839c-16.603-1.298-24.479,4.569-24.479,4.569
			s27.187,1.151,35.021,11.44c14.584,19.15,35.854,20.706,39.262,16.5c-3.936,0.196-8.262-1.753-12.895-6.133
			C93.395,132.225,91.049,127.76,88.701,124.427z"/>
		<path fill="#E78724" d="M42.818,161.555c0,0-30.157-10.367-24.425-20.865c5.726-10.501,1.168-16.222,1.168-16.222
			S2.723,137.038,7.014,150.4c2.637,8.202,7.061,14.14,31.354,25.525c11.652,21.644,2.406,60.601,2.961,60.783
			c0.929,0.309,16.359-7.631,15.312-44.076C56.312,181.439,55.418,166.16,42.818,161.555z"/>
		<path fill="#E78724" d="M82.336,50.075c-12.646,6.424-29.975,15.37-29.975,15.37l6.818,3.411
			c-0.651,1.054-0.966,1.683-0.966,1.683l6.998,3.182c0,0,17.084,12.375,27.551,20.331c-3.49-10.746-13.734-27.628-13.734-27.628
			S76.133,58.667,82.336,50.075z"/>
		<path fill="#E78724" d="M124.344,311.935c-38.866,0-52.031-19.731-52.031-19.731l6.074,14.791
			c2.295,6.399,26.787,26.312,45.896,26.312"/>
		<path fill="#E78724" d="M76.571,278.872c0,0,3.576,21.854,17.896,21.854c12.168,0,15.752-18.461,15.752-22.275L76.571,278.872z"/>
		<path fill="#E78724" d="M52.744,245.914c1.271-3.502,5.729-17.66,7.157-30.546c1.715-15.433,1.09-38.003,1.09-38.003
			s-3.812,14.795-7.161,17.188c-3.339,2.385-9.545,18.609-9.545,18.609s-3.317,24.154-4.899,32.273
			C43.758,246.312,47.443,243.732,52.744,245.914z"/>
		<path fill="#E78724" d="M18.168,150.163c0,0,8.104-2.866,10.5-20.522c2.385-17.66-2.865-32.932-2.865-32.932
			s0.477,24.34-2.385,29.114c-2.867,4.771-5.25,6.203-8.6,12.409C11.482,144.439,16.256,148.253,18.168,150.163z"/>
		<path fill="#87CCEE" d="M61.215,69.062"/>
		<path fill="#FDC168" d="M27.854,35.577l-1.656-1.049C21.314,34.692,27.854,35.577,27.854,35.577z"/>
		<path fill="#FBA919" d="M88.938,44.847c0,0-7.634-1.272-11.454-6.998c-3.82-5.728-14.637-17.184-31.879-17.312
			c-17.242-0.129-34.301,4.583-34.301,4.583l14.891,9.409c1.575-0.051,4.329-0.03,8.883,0.122
			c18.688,0.621,21.565,19.106,21.565,19.106l65.862-9.069"/>
		<path fill="#FFFFFF" d="M95.303,146.942c0,0-8.909,8.91-22.592,6.044c-13.688-2.862-21.957-8.908-22.601-19.409
			c-0.636-10.5,2.866-14.636,2.866-14.636s15.271,4.776,22.593,11.14C82.895,136.443,88.303,146.626,95.303,146.942z"/>
		<path fill="#C9C9C9" d="M84.521,143.759c0,0-7.728,3.53-16.364,0.655c-11.306-3.771-12.059-15.529-12.059-15.529
			s-6.938,20.354,12.51,24.272c15.597,3.142,24.82-5.896,24.82-5.896L84.521,143.759z"/>
		<path fill="#463014" d="M93.401,257.839"/>
		<path fill="#463014" d="M90.012,40.528C89.18,23.072,103.49,9.169,108.448,8.577c0.274,2.958-0.271,14.496,4.688,18.044
			c1.438-9.424,6.316-19.814,25.594-26.621c-4.127,10.946-0.551,20.115,1.151,24.365c13.152-11.944,22.021-9.97,22.021-9.97
			s-9.144,15.777-5.565,26.129C129.916,38.454,90.141,43.332,90.012,40.528z"/>
		<path fill="#463014" d="M34.01,67.118c-6.303-5.229-1.605-10.082-2.104-16.023c-0.271-3.161-0.521-6.144-1.562-7.789
			c-5.801-9.159-19.483-11.938-19.621-11.967l-6.422-1.258l4.252-4.973c0.551-0.644,18.009-17.301,45.021-8.579
			c18.898,6.095,32.895,26.763,33.409,27.598l-9.477,4.456c-0.11-0.176-11.17-19.603-27.388-24.831
			c-13.104-4.229-25.188-0.206-30.354,2.431c5.5,2.196,12.688,6.195,17.021,13.036c2.048,3.231,2.396,7.299,2.729,11.238
			c0.438,5.215,0.85,10.138,4.688,13.326L34.01,67.118z"/>
		<path fill="#463014" d="M17.176,143.451c0,0,7.938-9.847,10.293-29.008c0.924-7.547-0.717-22.433-3.344-28.16
			c0.478,14.079-3.104,28.16-3.104,28.16S18.61,140.587,17.176,143.451z"/>
		<path fill="#463014" d="M59.049,57.172c-0.004-0.021-2.549-11.138-9.604-16.75c-9.948-7.914-22.097-3.704-22.214-3.667
			l-1.765-5.449c0.588-0.191,14.474-4.566,27.27,4.429c12.873,9.046,14.418,17.246,14.556,18.152L59.049,57.172z"/>
		<path fill="#463014" d="M42.116,136.389c0,0-4.166-5.964-3.417-12.523c0.373-3.239,1.874-6.564,4.562-7.744
			c4.979-2.188,7.187,3.457,7.187,3.457S43.432,121.309,42.116,136.389z"/>
		<path fill="#463014" d="M93.401,257.839"/>
		<path fill="#463014" d="M87.859,145.479c0.174,0.325,0.264,0.507,0.264,0.507s-12.987,9.752-26.312-0.144
			c-7.128-5.302-6.455-18.417-4.271-23.979c5.678,1.287,10.488,3.607,14.521,6.316c-5.088-4.541-9.542-7.884-9.53-7.961
			l-5.781-1.637l-11.234-3.854c-0.146,0.857-4.244,20.074,7.59,33.168c5.244,5.806,29.835,18.808,41.51-3.424L87.859,145.479z"/>
		<path fill="#463014" d="M86.643,146.908c7.316,11.135,25.775,4.772,25.457-7c0,0-12.334,6.807-23.231-5.726
			c-6.355-7.317-26.748-27.492-54.394-20.787C53.566,117.592,78.842,135.036,86.643,146.908z"/>
		<g>
			<path fill="#463014" d="M93.401,257.839"/>
		</g>
		<path fill="#463014" d="M31.891,178.333c1.761,1.019,7.968,7.445,7.972,17.06c0,4.821-0.479,29.041-2.866,43.836
			c3.597,2.332,6.097,2.828,9.663,5.205c1.789-17.136,3.072-41.974,2.479-51.998c-0.688-11.429-6.81-19.099-12.479-22.369
			c-1.771-1.022-3.634-2.026-5.504-3.039c-9.72-5.252-19.771-10.685-19.771-19.962c0-7.257,2.813-9.527,5.808-11.933l0.321-0.261
			c1.979-1.601,4.226-3.417,5.555-6.399c3.626-8.153,4.219-28.921,0-34.193c-2.104-2.627-7.738-11.461-6.118-17.397
			c0.617-2.266,2.044-3.945,4.367-5.135c2.458-1.259,5.778-1.897,9.866-1.897c8.031,0,16.937,2.444,21.531,3.899
			c16.42,5.204,36.229,20.208,41.903,24.683c0.163,0.125,0.267,0.198,0.276,0.21l3.634,2.527l-2.271-3.803
			c-0.146-0.237-14.533-23.905-40.271-32.583c-5.007-1.688-14.844-4.521-24.511-4.521c-5.756,0-10.644,1.005-14.508,2.985
			c-4.713,2.411-7.904,6.258-9.23,11.121c-3.25,11.921,7.335,25.194,7.696,25.618c1.23,2.203,1.757,18.206-1.095,24.611
			c-0.396,0.884-1.473,1.753-2.828,2.851c-0.427,0.345-0.902,0.703-1.407,1.086C6.083,131.571,0,136.158,0,146.731
			c0,14.467,14.655,22.312,26.438,28.618C28.379,176.388,30.223,177.373,31.891,178.333z"/>
		<g>
			<g>
				<path fill="#463014" d="M34.01,67.118c-6.303-5.229-1.605-10.082-2.104-16.023c-0.271-3.161-0.521-6.144-1.562-7.789
					c-5.801-9.159-19.483-11.938-19.621-11.967l-6.422-1.258l4.252-4.973c0.551-0.644,18.009-17.301,45.021-8.579
					c18.898,6.095,32.895,26.763,33.409,27.598l-9.477,4.456c-0.11-0.176-11.17-19.603-27.388-24.831
					c-13.104-4.229-25.188-0.206-30.354,2.431c5.5,2.196,12.688,6.195,17.021,13.036c2.048,3.231,2.396,7.299,2.729,11.238
					c0.438,5.215,0.85,10.138,4.688,13.326L34.01,67.118z"/>
			</g>
			<g>
				<path fill="#463014" d="M33.805,68.189l-0.407-0.337c-4.675-3.879-3.845-7.7-3.042-11.397c0.365-1.706,0.75-3.47,0.594-5.279
					c-0.255-3.042-0.5-5.912-1.416-7.361c-5.521-8.72-18.869-11.514-19.002-11.541l-8.021-1.573l5.312-6.216
					c0.104-0.116,11.312-11.431,30.29-11.431c5.183,0,10.479,0.861,15.752,2.565c19.729,6.36,33.795,27.789,33.935,28.001
					l0.562,0.91l-11.209,5.272l-0.444-0.714c-1.204-2.056-11.834-19.583-26.868-24.433c-3.692-1.192-7.582-1.794-11.562-1.794
					c-7.203,0-13.044,1.963-16.146,3.281c5.188,2.339,11.485,6.276,15.479,12.562c2.167,3.424,2.521,7.609,2.861,11.652
					c0.422,5.028,0.821,9.756,4.349,12.684l1.331,1.104L33.805,68.189z"/>
			</g>
		</g>
		<g>
			<g>
				<path fill="#463014" d="M59.049,57.172c-0.004-0.021-2.549-11.138-9.604-16.75c-9.948-7.914-22.097-3.704-22.214-3.667
					l-1.765-5.449c0.588-0.191,14.474-4.566,27.27,4.429c12.873,9.046,14.418,17.246,14.556,18.152L59.049,57.172z"/>
			</g>
			<g>
				<path fill="#463014" d="M58.364,58.473l-0.248-1.094c-0.021-0.107-2.521-10.844-9.266-16.207
					c-3.845-3.061-8.479-4.615-13.771-4.615c-4.137,0-7.198,0.986-7.534,1.102l-0.912,0.303l-2.365-7.269l0.906-0.293
					c0.408-0.129,4.092-1.278,9.306-1.278c6.877,0,13.379,2.018,18.812,5.832C66.48,44.227,68.098,52.802,68.23,53.748l0.116,0.748
					L58.364,58.473z M35.08,34.65c5.652,0,10.829,1.738,14.968,5.024c5.982,4.77,8.807,13.191,9.651,16.21l6.492-2.587
					c-0.588-2.292-3.176-9.171-14-16.78c-5.18-3.64-11.137-5.484-17.711-5.484c-3.604,0-6.411,0.574-7.796,0.924l1.171,3.619
					C29.213,35.212,31.826,34.65,35.08,34.65z"/>
			</g>
		</g>
		<path fill="#463014" d="M93.867,295.482L93.867,295.482c-2.813,0-5.69-1.022-7.688-2.75c-1.526-1.315-6.69-6.059-8.967-11.869
			c-0.854-2.174-0.66-3.911,0.566-5.162c0.854-0.855,2.614-1.883,6.195-1.883l2.548-0.004c3.036-0.002,8.148-0.002,12.521-0.002
			h4.188c2.726,0,4.677,0.588,5.8,1.736c1.441,1.479,0.98,3.36,0.577,4.354c-0.702,1.738-3.604,7.396-8.521,12.652
			C99.32,294.443,96.758,295.482,93.867,295.482z"/>
		<path fill="#463014" d="M96.823,147.563l-10.183-0.655c0,0,2.604,4.588,4.289,10.522c1.904,6.712-1.74,16.521-1.74,16.521
			S102.766,158.581,96.823,147.563z"/>
		<g>
			<path fill="#463014" d="M84.113,322.368c-36.231-2.785-48.981-37.021-48.981-44.16l9.463,0.004l-4.731-0.004h4.731
				c0.047,3.083,9.678,32.375,40.25,34.729L84.113,322.368z"/>
		</g>
		<path fill="#FFFFFF" d="M73.93,261.017c-0.566-3.273-0.625-6.377,0.062-9.428c-2.754-2.07-7.689-2.84-11.396-4.041
			c-3.032-1.92-18.549,1.967-29.812-11.656c-14.104-17.061-11.136-27.244-11.136-27.244c-3.616,4.02-7.121,2.486-12.633,21.223
			c-5.521,18.736,2.591,31.801,17.708,44.914c7.142,6.195,17.237,8.747,25.922,9.729c-2.909-2.921,4.969-3.213,10.399-5.245
			c-0.438-4.389,0.291-8.645,3.561-12.064c1.971-2.062,4.507-3.303,7.138-4.283c0.147-0.342,0.271-0.651,0.411-0.979
			C74.069,261.632,73.984,261.333,73.93,261.017z"/>
		<path fill="#C9C9C9" d="M62.973,279.15c-0.313-0.92-0.551-1.858-0.783-2.803c-0.251-1.031-1.501-3.951,0.04-0.617
			c-0.396-0.854-0.655-1.732-0.847-2.621c-24.481-0.029-45.78-16.84-41.666-52.178c-3.205-4.256-7.692,8.578-7.692,8.578
			s-12.256,35.59,19.397,49.383c10.547,4.6,19.862,7.896,22.062,6.562c4.581,0.938,8.716-2.263,10.271-4.356
			C63.465,280.45,63.2,279.803,62.973,279.15z"/>
		<path fill="#463014" d="M73.488,255.892c0.038-2.982,0.646-5.871,2.089-8.75c0.104-0.199,0.225-0.391,0.326-0.582
			c-9.421-0.08-20.271-0.982-29.51-4.682c-10.155-4.062-22.858-17.959-25.041-34.291c0,0-19.125,14.758-13.505,46.347
			c5.271,29.662,30.096,39.332,58.404,40.967c0.014-0.188-3.188-6.799-2.181-10.844c-16.067,1.168-34.049-5.043-42.726-19.32
			c-7.944-13.062-5.716-35.379-2.451-38.647C26.865,251.222,55.521,256.332,73.488,255.892z"/>
		<path fill="#463014" d="M124.344,294.839"/>
		<path fill="#463014" d="M76.454,237.902c-5.094,14.949-15.499,27.048-15.499,27.048s14.313-0.649,15.104-3.185
			c0.585-1.867,12.924-30.752,17.66-64.59C89.264,204.496,76.891,236.623,76.454,237.902z"/>
		<path fill="#E78724" d="M157.545,203.437c0,0,16.226,24.814,28.133,42.426c1.843,2.725-11.907,2.912-11.907,2.912L157.545,203.437
			z"/>
		<path fill="#E78724" d="M149.816,151.99c0,0,4.896,12.205,7.568,18.676c2.91,7.033,14,10.532,14,10.532s-5.748-6.03-5.748-21.306
			c0-6.409-8.273-8.957-8.273-8.957L149.816,151.99z"/>
		<path fill="#E78724" d="M154.758,158.891c0,0,10.021,11.931,28.638,5.249c18.614-6.682,20.522-30.545,20.522-37.227
			c0-6.682-35.317,6.682-40.099,9.546C159.053,139.323,149.986,150.775,154.758,158.891z"/>
		<path fill="#E78724" d="M225.059,31.4c0,0-17.18-3.343-28.637,5.726c-11.453,9.067-14.795,16.228-14.795,16.228l19.305,15.302
			c0,0,9.332-4.325,12.197-16.735C215.99,39.513,214.082,33.787,225.059,31.4z"/>
		<path fill="#E78724" d="M159.771,124.427c7.397-10.5,19.583-15.08,29.319-15.839c16.598-1.298,24.473,4.569,24.473,4.569
			s-27.18,1.151-35.016,11.44c-14.584,19.15-35.854,20.706-39.256,16.5c3.934,0.196,8.264-1.753,12.893-6.133
			C155.076,132.225,157.424,127.76,159.771,124.427z"/>
		<path fill="#E78724" d="M205.653,161.555c0,0,30.153-10.367,24.427-20.865c-5.727-10.501-1.173-16.222-1.173-16.222
			s16.85,12.57,12.548,25.932c-2.637,8.202-7.061,14.14-31.354,25.525c-11.652,21.644-2.406,60.601-2.957,60.783
			c-0.924,0.309-16.359-7.631-15.305-44.076C192.159,181.439,193.055,166.16,205.653,161.555z"/>
		<path fill="#E78724" d="M166.137,50.075c12.641,6.424,29.967,15.37,29.967,15.37l-6.817,3.411
			c0.651,1.054,0.972,1.683,0.972,1.683l-6.997,3.182c0,0-17.084,12.375-27.558,20.331c3.486-10.746,13.73-27.628,13.73-27.628
			S172.342,58.667,166.137,50.075z"/>
		<path fill="#E78724" d="M124.131,311.935c38.854,0,52.021-19.731,52.021-19.731l-6.062,14.791
			c-2.302,6.399-26.791,26.312-45.896,26.312"/>
		<path fill="#E78724" d="M171.9,278.872c0,0-3.58,21.854-17.895,21.854c-12.164,0-15.75-18.461-15.75-22.275L171.9,278.872z"/>
		<path fill="#E78724" d="M195.728,245.914c-1.272-3.502-5.726-17.66-7.161-30.546c-1.715-15.433-1.086-38.003-1.086-38.003
			s3.818,14.795,7.156,17.188c3.344,2.385,9.545,18.609,9.545,18.609s3.324,24.154,4.906,32.273
			C204.711,246.312,201.029,243.732,195.728,245.914z"/>
		<path fill="#E78724" d="M230.307,150.163c0,0-8.115-2.866-10.5-20.522c-2.385-17.66,2.865-32.932,2.865-32.932
			s-0.48,24.34,2.385,29.114c2.865,4.772,5.25,6.203,8.592,12.409C236.986,144.438,232.215,148.253,230.307,150.163z"/>
		<path fill="#87CCEE" d="M187.258,69.062"/>
		<path fill="#FDC168" d="M220.617,35.577l1.659-1.049C227.16,34.692,220.617,35.577,220.617,35.577z"/>
		<path fill="#FBA919" d="M159.53,44.847c0,0,7.644-1.272,11.454-6.998c3.818-5.728,14.639-17.184,31.883-17.312
			c17.242-0.129,34.301,4.583,34.301,4.583l-14.892,9.409c-1.575-0.051-4.329-0.03-8.888,0.122
			c-18.688,0.621-21.562,19.106-21.562,19.106l-65.854-9.069"/>
		<path fill="#FFFFFF" d="M153.168,146.942c0,0,8.903,8.91,22.59,6.044c13.685-2.862,21.957-8.908,22.595-19.409
			c0.635-10.5-2.863-14.636-2.863-14.636s-15.271,4.776-22.593,11.14C165.578,136.445,160.17,146.626,153.168,146.942z"/>
		<path fill="#C9C9C9" d="M163.948,143.759c0,0,7.729,3.53,16.364,0.655c11.309-3.771,12.062-15.529,12.062-15.529
			s6.932,20.354-12.521,24.272c-15.594,3.142-24.812-5.896-24.812-5.896L163.948,143.759z"/>
		<path fill="#463014" d="M155.068,257.839"/>
		<path fill="#463014" d="M214.461,67.118c6.303-5.229,1.604-10.082,2.104-16.023c0.271-3.161,0.521-6.144,1.562-7.789
			c5.801-9.159,19.479-11.938,19.625-11.967l6.422-1.258l-4.252-4.973c-0.551-0.644-18.01-17.301-45.028-8.579
			c-18.896,6.095-32.886,26.763-33.405,27.598l9.479,4.456c0.108-0.176,11.176-19.603,27.389-24.831
			c13.104-4.229,25.188-0.206,30.354,2.431c-5.496,2.196-12.689,6.195-17.023,13.036c-2.043,3.231-2.385,7.299-2.717,11.238
			c-0.439,5.215-0.854,10.138-4.693,13.326L214.461,67.118z"/>
		<path fill="#463014" d="M231.293,143.451c0,0-7.938-9.847-10.289-29.008c-0.926-7.547,0.713-22.433,3.338-28.16
			c-0.479,14.079,3.104,28.16,3.104,28.16S229.861,140.587,231.293,143.451z"/>
		<path fill="#463014" d="M189.424,57.172c0.004-0.021,2.547-11.138,9.602-16.75c9.947-7.914,22.098-3.704,22.21-3.667l1.771-5.449
			c-0.597-0.191-14.479-4.566-27.272,4.429c-12.873,9.046-14.414,17.246-14.552,18.152L189.424,57.172z"/>
		<path fill="#463014" d="M206.355,136.389c0,0,4.166-5.964,3.413-12.523c-0.369-3.239-1.87-6.564-4.55-7.744
			c-4.98-2.188-7.188,3.457-7.188,3.457S205.041,121.309,206.355,136.389z"/>
		<path fill="#463014" d="M155.068,257.839"/>
		<path fill="#463014" d="M160.613,145.479c-0.174,0.325-0.264,0.507-0.264,0.507s12.99,9.752,26.307-0.144
			c7.133-5.302,6.459-18.417,4.271-23.979c-5.676,1.287-10.492,3.607-14.521,6.316c5.09-4.541,9.543-7.884,9.527-7.961l5.786-1.637
			l11.239-3.852c0.145,0.857,4.236,20.074-7.602,33.168c-5.244,5.806-29.834,18.808-41.506-3.424L160.613,145.479z"/>
		<path fill="#463014" d="M161.826,146.908c-7.312,11.135-25.77,4.772-25.445-7c0,0,12.324,6.807,23.229-5.726
			c6.362-7.317,26.752-27.492,54.397-20.787C194.908,117.592,169.631,135.036,161.826,146.908z"/>
		<g>
			<path fill="#463014" d="M155.068,257.839"/>
		</g>
		<path fill="#463014" d="M216.584,178.333c-1.769,1.019-7.979,7.445-7.979,17.06c-0.004,4.821,0.479,29.041,2.866,43.836
			c-3.59,2.332-6.09,2.828-9.664,5.205c-1.789-17.136-3.076-41.974-2.476-51.998c0.685-11.429,6.802-19.099,12.476-22.369
			c1.776-1.022,3.635-2.026,5.509-3.039c9.727-5.252,19.771-10.685,19.771-19.962c0-7.257-2.823-9.527-5.812-11.933l-0.312-0.261
			c-1.981-1.601-4.229-3.417-5.561-6.399c-3.627-8.153-4.222-28.921-0.004-34.193c2.104-2.627,7.742-11.461,6.122-17.397
			c-0.621-2.266-2.049-3.945-4.371-5.135c-2.459-1.259-5.771-1.897-9.864-1.897c-8.021,0-16.938,2.444-21.523,3.899
			c-16.418,5.204-36.23,20.208-41.913,24.683c-0.162,0.125-0.257,0.198-0.274,0.21l-3.636,2.527l2.271-3.803
			c0.146-0.237,14.533-23.905,40.271-32.583c5.009-1.688,14.845-4.521,24.513-4.521c5.76,0,10.641,1.005,14.51,2.985
			c4.717,2.411,7.899,6.258,9.229,11.121c3.25,11.921-7.336,25.194-7.696,25.618c-1.229,2.203-1.757,18.206,1.095,24.611
			c0.395,0.884,1.47,1.753,2.828,2.851c0.431,0.345,0.897,0.703,1.406,1.086c4.022,3.036,10.104,7.623,10.104,18.196
			c0,14.467-14.662,22.312-26.44,28.618C220.094,176.388,218.246,177.373,216.584,178.333z"/>
		<path fill="#463014" d="M199.092,65.416c-2.332-3.95-8.295-11.577-22.041-18.279c-15.34-7.477-33.094-11.271-52.777-11.281v-0.004
			c0,0-0.025,0-0.038,0c0,0-0.021,0-0.038,0v0.002c-19.686,0.01-37.438,3.805-52.772,11.281
			c-13.746,6.703-19.707,14.329-22.041,18.279l-1.009,1.325l11.771,2.62l0.373-0.471l0.197-0.432
			c0.182-0.778,1.76-4.978,14.884-11.378c14.03-6.843,30.394-10.312,48.633-10.318c18.241,0.006,34.599,3.475,48.627,10.318
			c13.125,6.4,14.708,10.6,14.888,11.378l0.196,0.432l0.369,0.471l11.774-2.62L199.092,65.416z"/>
		<g>
			<g>
				<path fill="#463014" d="M214.461,67.118c6.303-5.229,1.604-10.082,2.104-16.023c0.271-3.161,0.521-6.144,1.562-7.789
					c5.801-9.159,19.479-11.938,19.625-11.967l6.422-1.258l-4.252-4.973c-0.551-0.644-18.01-17.301-45.028-8.579
					c-18.896,6.095-32.886,26.763-33.405,27.598l9.479,4.456c0.108-0.176,11.176-19.603,27.389-24.831
					c13.104-4.229,25.188-0.206,30.354,2.431c-5.496,2.196-12.689,6.195-17.023,13.036c-2.043,3.231-2.385,7.299-2.717,11.238
					c-0.439,5.215-0.854,10.138-4.693,13.326L214.461,67.118z"/>
			</g>
			<g>
				<path fill="#463014" d="M202.33,64.148l1.326-1.104c3.53-2.928,3.932-7.657,4.354-12.684c0.343-4.045,0.688-8.23,2.86-11.652
					c3.979-6.284,10.281-10.222,15.479-12.563c-3.109-1.317-8.951-3.28-16.155-3.28c-3.979,0-7.856,0.602-11.556,1.794
					c-15.039,4.85-25.666,22.377-26.869,24.433l-0.451,0.713l-11.209-5.271l0.57-0.91c0.132-0.212,14.199-21.641,33.924-28.001
					c5.275-1.704,10.576-2.564,15.756-2.564c18.982,0,30.193,11.317,30.289,11.431l5.316,6.216l-8.021,1.573
					c-0.133,0.027-13.479,2.819-19.006,11.541c-0.916,1.45-1.156,4.317-1.416,7.361c-0.146,1.81,0.229,3.574,0.604,5.279
					c0.803,3.697,1.631,7.521-3.052,11.397l-0.399,0.337L202.33,64.148z"/>
			</g>
		</g>
		<g>
			<g>
				<path fill="#463014" d="M189.424,57.172c0.004-0.021,2.547-11.138,9.602-16.75c9.947-7.914,22.098-3.704,22.21-3.667
					l1.771-5.449c-0.597-0.191-14.479-4.566-27.272,4.429c-12.873,9.046-14.414,17.246-14.552,18.152L189.424,57.172z"/>
			</g>
			<g>
				<path fill="#463014" d="M180.127,54.496l0.104-0.748c0.146-0.946,1.752-9.519,14.945-18.794
					c5.428-3.814,11.932-5.832,18.809-5.832c5.224,0,8.901,1.147,9.312,1.278l0.903,0.293l-2.362,7.269l-0.912-0.303
					c-0.343-0.115-3.409-1.102-7.537-1.102c-5.29,0-9.924,1.552-13.769,4.615c-6.745,5.365-9.241,16.101-9.271,16.207l-0.248,1.092
					L180.127,54.496z M220.617,35.577l1.183-3.619c-1.394-0.352-4.192-0.924-7.808-0.924c-6.567,0-12.527,1.846-17.709,5.484
					c-10.828,7.611-13.416,14.488-14.003,16.78l6.497,2.587c0.854-3.021,3.664-11.442,9.656-16.21
					c4.135-3.286,9.306-5.024,14.957-5.024C216.642,34.65,219.26,35.212,220.617,35.577z"/>
			</g>
		</g>
		<path fill="#463014" d="M147.395,292.56c-4.917-5.258-7.826-10.914-8.529-12.652c-0.396-0.99-0.854-2.877,0.582-4.357
			c1.124-1.146,3.072-1.731,5.796-1.731h4.192c4.369,0,9.479,0,12.516,0.002l2.555,0.004c3.572,0,5.343,1.021,6.188,1.888
			c1.233,1.244,1.427,2.981,0.577,5.157c-2.277,5.812-7.442,10.56-8.969,11.869c-2,1.729-4.871,2.75-7.691,2.75l0,0
			C151.717,295.482,149.155,294.443,147.395,292.56z"/>
		<path fill="#463014" d="M151.65,147.563l10.176-0.655c0,0-2.599,4.588-4.278,10.522c-1.904,6.712,1.735,16.521,1.735,16.521
			S145.705,158.581,151.65,147.563z"/>
		<path fill="#E78724" d="M124.237,111.212c-6.489,0-14.95-0.178-21.298-4.74c0,0,8.312,14.571,21.287,14.571l0.011-1.844
			l0.011,1.844c12.979,0,21.287-14.571,21.287-14.571C139.188,111.034,130.721,111.212,124.237,111.212z"/>
		<path fill="#463014" d="M142.104,111.142c-6.509,3.939-12.322,5.304-17.867,5.425c-5.546-0.121-11.354-1.486-17.867-5.425
			c0,0,9.479,11.567,17.819,11.656v0.007c0.016,0,0.029-0.004,0.047-0.004c0.021,0,0.029,0.004,0.047,0.004v-0.007
			C132.621,122.709,142.104,111.142,142.104,111.142z"/>
		<g>
			<path fill="#463014" d="M164.359,322.368l-0.727-9.435c30.562-2.354,40.189-31.646,40.246-34.729h9.465
				C213.348,285.337,200.594,319.583,164.359,322.368z"/>
		</g>
		<path fill="#FFFFFF" d="M174.541,261.017c0.562-3.273,0.625-6.377-0.065-9.428c2.758-2.07,7.696-2.84,11.403-4.041
			c3.025-1.92,18.553,1.967,29.81-11.656c14.104-17.061,11.132-27.244,11.132-27.244c3.619,4.02,7.121,2.486,12.637,21.223
			c5.521,18.736-2.595,31.801-17.712,44.914c-7.141,6.195-17.23,8.747-25.922,9.729c2.909-2.921-4.969-3.213-10.396-5.245
			c0.434-4.389-0.295-8.645-3.563-12.064c-1.967-2.062-4.507-3.303-7.136-4.283c-0.148-0.342-0.275-0.651-0.411-0.979
			C174.404,261.632,174.486,261.333,174.541,261.017z"/>
		<path fill="#C9C9C9" d="M185.494,279.15c0.318-0.92,0.558-1.858,0.784-2.803c0.255-1.031,1.505-3.951-0.038-0.617
			c0.396-0.854,0.655-1.732,0.853-2.621c24.479-0.029,45.774-16.84,41.655-52.178c3.205-4.256,7.696,8.578,7.696,8.578
			s12.257,35.59-19.396,49.383c-10.547,4.6-19.867,7.896-22.066,6.562c-4.585,0.938-8.721-2.263-10.268-4.356
			C185.002,280.45,185.273,279.803,185.494,279.15z"/>
		<path fill="#463014" d="M174.979,255.892c-0.034-2.982-0.646-5.871-2.085-8.75c-0.102-0.199-0.219-0.391-0.326-0.582
			c9.42-0.08,20.271-0.982,29.51-4.682c10.154-4.062,22.857-17.959,25.041-34.291c0,0,19.125,14.758,13.506,46.347
			c-5.272,29.662-30.098,39.332-58.397,40.967c-0.021-0.188,3.185-6.799,2.173-10.844c16.069,1.168,34.045-5.043,42.729-19.32
			c7.938-13.062,5.716-35.379,2.444-38.647C221.606,251.222,192.947,256.332,174.979,255.892z"/>
		<g>
			<path fill="#463014" d="M124.131,294.839"/>
			<path fill="#463014" d="M186.41,263.333c-3.382-3.656-9.6-8.016-23.938-8.016c0,0-27.182-0.016-38.188-0.021l0,0
				c-0.015,0-0.026,0-0.047,0c0,0-0.034,0-0.047,0l0,0c-11.005,0.008-38.192,0.021-38.192,0.021
				c-14.334,0-20.553,4.359-23.937,8.016c-4.93,5.32-5.702,12.729-2.292,21.979c9.062,24.625,21.794,49.645,64.419,49.68v0.004
				c0.017,0,0.029-0.004,0.047-0.004c0.021,0,0.029,0.004,0.047,0.004v-0.004c42.621-0.037,55.354-25.055,64.418-49.68
				C192.111,276.056,191.336,268.654,186.41,263.333z M179.774,283.581c-4.317,12.366-15.919,42.298-55.539,42.354
				c-39.625-0.06-51.224-29.984-55.54-42.354c-2.389-6.854-2.207-11.938,0.562-15.093c1.89-2.154,6.229-4.729,16.121-4.729
				l10.328-0.004c7.62-0.008,17.191-0.021,28.526-0.021c11.331,0.005,20.907,0.014,28.527,0.021l10.33,0.004
				c9.894,0,14.229,2.57,16.123,4.729C181.979,271.646,182.164,276.719,179.774,283.581z"/>
		</g>
		<path fill="#463014" d="M172.016,237.902c5.094,14.949,15.498,27.048,15.498,27.048s-14.312-0.649-15.104-3.185
			c-0.579-1.867-12.921-30.752-17.649-64.59C159.205,204.496,171.578,236.623,172.016,237.902z"/>
	</g>
</g>
</svg>
