<?xml version="1.0" encoding="utf-8"?>
<!-- Generator: Adobe Illustrator 18.1.0, SVG Export Plug-In . SVG Version: 6.00 Build 0)  -->
<svg version="1.1" id="Layer_1" xmlns="http://www.w3.org/2000/svg" xmlns:xlink="http://www.w3.org/1999/xlink" x="0px" y="0px"
	 viewBox="0 180.5 612 612" enable-background="new 0 180.5 612 612" xml:space="preserve">
<rect y="180.5" fill="#F08950" width="612" height="612"/>
<g enable-background="new    ">
	<path fill="#323330" d="M162.3,467.2h179.9v49.2H218.3v86.4h109.1v48H218.3v39.2h129.5V739H162.3V467.2z"/>
	<path fill="#323330" d="M378.2,685.5l45.6-26.4c12,19.6,27.6,34,55.2,34c23.2,0,38-11.6,38-27.6c0-19.2-15.2-26-40.8-37.2l-14-6
		c-40.4-17.2-67.2-38.8-67.2-84.4c0-42,32-74,82-74c35.6,0,61.2,12.4,79.6,44.8l-43.6,28c-9.6-17.2-20-24-36-24
		c-16.4,0-26.8,10.4-26.8,24c0,16.8,10.4,23.6,34.4,34l14,6c47.6,20.4,74.4,41.2,74.4,88c0,50.4-39.6,78-92.8,78
		C428.1,742.6,394.6,717.8,378.2,685.5z"/>
</g>
</svg>
